<svg width="292" height="202" viewBox="0 0 292 202" fill="none" xmlns="http://www.w3.org/2000/svg">
<path d="M290.828 196.732C291.722 197.477 292.02 198.744 291.647 199.787C291.275 200.904 290.232 201.575 289.04 201.575H229.067C228.397 201.575 227.726 201.351 227.279 200.904L161.421 143.912C160.825 143.39 160.453 142.645 160.453 141.826C160.453 141.006 160.825 140.261 161.421 139.74L191.37 113.814C192.413 112.92 193.978 112.92 195.021 113.814L290.902 196.807L290.828 196.732ZM191.296 88.2605C191.817 88.7075 192.488 88.931 193.084 88.931C193.68 88.931 194.35 88.7075 194.872 88.2605L290.753 5.26749C291.647 4.52249 291.945 3.25599 291.573 2.21299C291.2 1.09549 290.157 0.424988 288.965 0.424988H228.993C228.322 0.424988 227.652 0.648489 227.205 1.09549L161.347 58.088C160.751 58.6095 160.378 59.3545 160.378 60.174C160.378 60.9935 160.751 61.7385 161.347 62.26L191.296 88.186V88.2605ZM178.705 101C178.705 100.18 178.333 99.4355 177.737 98.914L64.7949 1.09549C64.2734 0.648489 63.6774 0.424988 63.0069 0.424988H2.9599C1.7679 0.424988 0.7249 1.16999 0.3524 2.21299C-0.0201001 3.33049 0.2779 4.52249 1.1719 5.26749L111.73 101L1.1719 196.732C0.2779 197.477 -0.0201001 198.744 0.3524 199.787C0.7249 200.904 1.7679 201.575 2.9599 201.575H62.9324C63.6029 201.575 64.2734 201.351 64.7204 200.904L177.737 103.086C178.333 102.564 178.705 101.819 178.705 101Z" fill="#131313"/>
</svg>
