<?xml version="1.0" encoding="UTF-8"?>
<!DOCTYPE svg PUBLIC "-//W3C//DTD SVG 1.1//EN" "http://www.w3.org/Graphics/SVG/1.1/DTD/svg11.dtd">
<svg xmlns="http://www.w3.org/2000/svg" version="1.1" width="1611px" height="1112px" style="shape-rendering:geometricPrecision; text-rendering:geometricPrecision; image-rendering:optimizeQuality; fill-rule:evenodd; clip-rule:evenodd" xmlns:xlink="http://www.w3.org/1999/xlink">
<g><path style="opacity:0.995" fill="#121312" d="M 10.5,-0.5 C 124.167,-0.5 237.833,-0.5 351.5,-0.5C 356.792,2.82841 361.792,6.66175 366.5,11C 572.333,189.5 778.167,368 984,546.5C 987.333,552.5 987.333,558.5 984,564.5C 981.194,567.306 978.36,570.14 975.5,573C 772.167,749 568.833,925 365.5,1101C 361.215,1105.13 356.548,1108.63 351.5,1111.5C 237.833,1111.5 124.167,1111.5 10.5,1111.5C 5.16667,1109.5 1.5,1105.83 -0.5,1100.5C -0.5,1097.17 -0.5,1093.83 -0.5,1090.5C 1.88599,1086.6 4.88599,1083.1 8.5,1080C 210.673,905.324 412.673,730.491 614.5,555.5C 413.006,380.842 211.34,206.342 9.5,32C 5.55494,28.5649 2.22161,24.7315 -0.5,20.5C -0.5,17.1667 -0.5,13.8333 -0.5,10.5C 1.5,5.16667 5.16667,1.5 10.5,-0.5 Z"/></g>
<g><path style="opacity:0.995" fill="#121312" d="M 1259.5,-0.5 C 1372.83,-0.5 1486.17,-0.5 1599.5,-0.5C 1604.42,1.41495 1608.08,4.74828 1610.5,9.5C 1610.5,13.5 1610.5,17.5 1610.5,21.5C 1609.03,23.1513 1607.7,24.9847 1606.5,27C 1429.17,180.333 1251.83,333.667 1074.5,487C 1065.88,491.131 1058.22,489.798 1051.5,483C 997.167,436 942.833,389 888.5,342C 882.149,331.889 883.483,322.889 892.5,315C 1013.46,211.04 1134.13,106.707 1254.5,2C 1256.31,1.24316 1257.98,0.409824 1259.5,-0.5 Z"/></g>
<g><path style="opacity:0.995" fill="#121312" d="M 1610.5,1090.5 C 1610.5,1094.17 1610.5,1097.83 1610.5,1101.5C 1608.17,1105.83 1604.83,1109.17 1600.5,1111.5C 1486.5,1111.5 1372.5,1111.5 1258.5,1111.5C 1255.74,1109.92 1253.07,1108.09 1250.5,1106C 1131.69,1002.76 1012.69,899.764 893.5,797C 881.259,785.644 881.592,774.644 894.5,764C 948.5,717.333 1002.5,670.667 1056.5,624C 1062.5,620.667 1068.5,620.667 1074.5,624C 1252.96,778.127 1431.13,932.627 1609,1087.5C 1609.23,1088.74 1609.73,1089.74 1610.5,1090.5 Z"/></g>
</svg>
